<?xml version="1.0" encoding="utf-8"?>
<!-- Generator: Adobe Illustrator 19.0.0, SVG Export Plug-In . SVG Version: 6.00 Build 0)  -->
<svg version="1.1" id="Layer_1" xmlns="http://www.w3.org/2000/svg" xmlns:xlink="http://www.w3.org/1999/xlink" x="0px" y="0px"
	 viewBox="0 0 144.6 34" style="enable-background:new 0 0 144.6 34;" xml:space="preserve">
<style type="text/css">
	.st0{fill:#FFFFFF;}
	.st1{fill:#DB1F30;}
</style>
<rect id="XMLID_1_" class="st0" width="24" height="34"/>
<g id="XMLID_3_">
	<path id="XMLID_4_" class="st1" d="M11.3,19.8H9.9v3.5c1.5,0.3,2.4,0.7,2.7,1.2L12.4,27H4.3L4,24.5c0.3-0.3,0.8-0.7,1.6-1V9.8
		C4.8,9.5,4.2,9.2,4,8.8l0.3-2.5h8c2.8,0,4.9,0.5,6.2,1.5c1.4,1,2.1,2.7,2.1,5.2C20.5,17.5,17.4,19.8,11.3,19.8z M11.7,9.6H9.9v7h2
		c1.4,0,2.4-0.3,3-0.8c0.7-0.5,1-1.5,1-2.8s-0.4-2.2-1.1-2.7C14.2,9.8,13.1,9.6,11.7,9.6z"/>
	<path id="XMLID_7_" class="st0" d="M36.2,6.3l0.3,2.5c-0.3,0.4-0.9,0.7-1.6,1v13.7c0.8,0.3,1.3,0.6,1.6,1L36.2,27h-7l-0.3-2.5
		c0.3-0.3,0.8-0.7,1.6-1V9.8c-0.8-0.3-1.4-0.6-1.6-1l0.3-2.5H36.2z"/>
	<path id="XMLID_9_" class="st0" d="M43.3,15.7v7.9c0.7,0.3,1.3,0.6,1.6,1.1L44.6,27h-5.9l-0.3-2.3c0.4-0.5,0.9-0.8,1.6-1.1V9.7
		c-0.8-0.3-1.4-0.7-1.7-1.1l0.3-2.3h6.2l6,11.6c0.4,0.8,0.9,2,1.3,3.4l0.2,0.7l0.3-0.1c-0.3-1.7-0.4-3.2-0.4-4.4V9.8
		c-0.7-0.3-1.3-0.7-1.6-1.1l0.3-2.3h5.9L57,8.6c-0.4,0.5-0.9,0.9-1.6,1.1V27h-4.7l-6-11.7c-0.4-0.8-0.9-2-1.3-3.4l-0.2-0.7l-0.3,0.1
		C43.1,13.1,43.3,14.5,43.3,15.7z"/>
	<path id="XMLID_11_" class="st0" d="M74.8,6.3v4.3l-1.9,0.2c-0.3-0.2-0.5-0.6-0.8-1.3h-3.6v13.9c0.8,0.3,1.4,0.6,1.7,1L69.9,27h-7
		l-0.3-2.5c0.3-0.3,0.8-0.7,1.6-1V9.6h-3.6c-0.2,0.6-0.5,1.1-0.8,1.3L58,10.6V6.3H74.8z"/>
	<path id="XMLID_13_" class="st0" d="M90.2,27H76.3L76,24.5c0.3-0.3,0.8-0.7,1.7-1V9.8c-0.8-0.3-1.4-0.6-1.7-1l0.3-2.5H90v5.2
		l-2.2,0.3c-0.5-0.4-0.8-1.1-1.1-2.2h-4.7v5.2h4.2c0.2-0.6,0.5-1,0.8-1.3l1.9,0.2V19l-1.9,0.2c-0.3-0.2-0.5-0.6-0.8-1.3h-4.2v5.7
		h4.9c0.3-1,0.6-1.8,1.1-2.2l2.2,0.3V27z"/>
	<path id="XMLID_15_" class="st0" d="M108.4,12.4c0,1.4-0.4,2.5-1.3,3.4c-0.9,0.9-1.9,1.6-3.2,2.1c1,0.4,1.7,0.9,2,1.5l2.2,4.2
		c0.9,0.3,1.6,0.7,1.9,1.1l-0.3,2.3h-5.1l-3.5-7.4c-0.3-0.7-0.7-1.1-1.1-1.1h-2v4.8c1.5,0.3,2.4,0.7,2.7,1.2l-0.3,2.5h-8.1l-0.3-2.5
		c0.3-0.3,0.8-0.7,1.7-1V9.8c-0.8-0.3-1.4-0.6-1.7-1l0.3-2.5h7.7c2.8,0,4.9,0.5,6.2,1.4C107.7,8.5,108.4,10.1,108.4,12.4z M99.9,9.6
		h-1.8v5.7h1.7c1.4,0,2.4-0.2,3-0.6c0.7-0.4,1-1.1,1-2.2s-0.3-1.8-1-2.2C102.2,9.8,101.2,9.6,99.9,9.6z"/>
	<path id="XMLID_18_" class="st0" d="M119.2,27.3c-2.8,0-5-0.8-6.4-2.5c-1.4-1.6-2.1-4.3-2.1-8c0-3.7,0.8-6.4,2.3-8.1
		c1.5-1.8,3.8-2.6,6.6-2.6c2.9,0,5,0.8,6.4,2.3c1.4,1.6,2.1,4.2,2.1,7.8s-0.8,6.4-2.4,8.3C124.3,26.3,122,27.3,119.2,27.3z
		 M116.3,11c-0.7,1-1.1,2.9-1.1,5.4s0.4,4.5,1.1,5.6c0.8,1.2,1.8,1.8,3.1,1.8s2.4-0.6,3.1-1.7c0.7-1.1,1.1-3,1.1-5.5
		c0-4.8-1.4-7.2-4.3-7.2C118,9.5,117,10,116.3,11z"/>
	<path id="XMLID_21_" class="st0" d="M139.3,9.6c-0.7-0.2-1.4-0.3-2.1-0.3c-0.7,0-1.3,0.2-1.8,0.6c-0.5,0.4-0.7,0.9-0.7,1.6
		c0,0.7,0.2,1.2,0.5,1.6c0.3,0.4,1,0.7,2,1l2.7,0.8c1.4,0.4,2.6,1.1,3.4,2c0.8,0.9,1.3,2.2,1.3,3.9c0,2-0.7,3.6-2.2,4.8
		c-1.5,1.2-3.3,1.8-5.5,1.8c-1.2,0-2.4-0.2-3.7-0.5c-1.3-0.3-2.3-0.7-3.2-1.3c0-0.1,0-0.4,0-0.7c0-0.3,0.1-0.9,0.2-1.7
		c0.1-0.8,0.3-1.5,0.6-2h2.9c0.3,0.6,0.5,1.5,0.6,2.5c0.7,0.3,1.5,0.5,2.4,0.5c0.9,0,1.7-0.2,2.3-0.7c0.6-0.4,0.9-1.1,0.9-1.9
		c0-0.4,0-0.7-0.1-0.9c-0.1-0.3-0.2-0.5-0.6-0.8c-0.3-0.3-0.8-0.5-1.3-0.7l-3.1-0.9c-3.1-0.9-4.7-2.9-4.7-6c0-1.8,0.7-3.3,2-4.4
		c1.3-1.1,3-1.6,5.2-1.6s4.2,0.5,6.3,1.4c0,0.1,0,0.4,0,0.7c0,0.3-0.1,0.9-0.2,1.7c-0.1,0.8-0.3,1.5-0.6,2h-2.9
		C139.6,11.5,139.4,10.7,139.3,9.6z"/>
</g>
</svg>
